<?xml version="1.0" encoding="UTF-8"?>
<svg width="526px" height="501px" viewBox="0 0 526 501" version="1.1" xmlns="http://www.w3.org/2000/svg" xmlns:xlink="http://www.w3.org/1999/xlink">
    <title>Mask</title>
    <g id="Website---Design" stroke="none" stroke-width="1" fill="none" fill-rule="evenodd">
        <g id="Design---Homepage" transform="translate(-798.000000, -168.000000)" fill="#E2ECC9" fill-rule="nonzero">
            <path d="M934.861703,669 C909.668683,669 885.220566,655.86222 871.974653,632.508274 C852.44481,598.055987 864.726169,554.383539 899.421484,534.985156 L976.929654,482.680665 L870.102844,482.680665 C837.336638,482.680665 808.686501,460.721126 800.368411,429.237882 C792.069422,397.754639 806.184389,364.658816 834.739025,348.684792 L901.751695,311.216033 L870.102844,311.216033 C830.279154,311.206547 798,279.144672 798,239.608017 C798,200.071361 830.279154,168 870.093294,168 L1176.72616,168 C1209.50191,168 1238.1425,189.959539 1246.45104,221.442782 C1254.75958,252.926026 1240.63506,286.021849 1212.08998,301.995872 L1145.07731,339.474118 L1251.90412,339.474118 C1284.67987,339.474118 1313.33001,361.433656 1321.63855,392.9169 C1329.94709,424.400144 1315.82257,457.495967 1287.26794,473.46999 L970.168222,659.770354 C958.985119,666.011985 946.837461,668.981028 934.871253,668.990514" id="Mask"></path>
        </g>
    </g>
</svg>