<?xml version="1.0" encoding="UTF-8"?>
<svg width="107px" height="102px" viewBox="0 0 107 102" version="1.1" xmlns="http://www.w3.org/2000/svg" xmlns:xlink="http://www.w3.org/1999/xlink">
    <title>Group 7</title>
    <g id="Design-moodboard" stroke="none" stroke-width="1" fill="none" fill-rule="evenodd">
        <g id="-XXL-Copy-2" transform="translate(-55.000000, -20.000000)" fill-rule="nonzero">
            <g id="Group-7" transform="translate(55.000000, 20.000000)">
                <path d="M27.8406887,102 C22.7158728,102 17.7425867,99.3252424 15.0480758,94.5705468 C11.075275,87.5563087 13.5735742,78.6649121 20.6313666,74.7155407 L36.3982376,64.0667222 L14.6673086,64.0667222 C8.00193963,64.0667222 2.17386998,59.5959179 0.481787091,53.1861557 C-1.20641042,46.7763935 1.66488523,40.0383217 7.47352798,36.7861254 L21.1053829,29.1577552 L14.6673086,29.1577552 C6.5662918,29.155824 0,22.6282566 0,14.5788776 C0,6.52949864 6.5662918,0 14.6653659,0 L77.0412527,0 C83.7085643,0 89.5346913,4.4708043 91.2248315,10.8805665 C92.9149717,17.2903287 90.0417334,24.0284005 84.2350333,27.2805968 L70.6031784,34.9108982 L92.3341074,34.9108982 C99.0014191,34.9108982 104.829489,39.3817025 106.519629,45.7914647 C108.209769,52.2012269 105.336531,58.9392987 99.5278881,62.191495 L35.0228132,100.12091 C32.7479233,101.391662 30.2768218,101.996138 27.8426314,101.998069" id="Path" fill="#FAED00"></path>
                <path d="M23.0422447,5.17184187 C25.7833801,5.17184187 28.0679834,6.08531506 29.8960546,7.9103302 C31.7241258,9.73534535 32.63719,12.0354438 32.63719,14.8106256 C32.63719,17.5858073 31.7241258,19.8530748 29.8960546,21.6607089 C28.0679834,23.4683429 25.7833801,24.3740912 23.0422447,24.3740912 C20.3011093,24.3740912 17.9990218,23.4702742 16.1884348,21.6607089 C14.3778478,19.8530748 13.4725543,17.5684262 13.4725543,14.8106256 C13.4725543,12.0528249 14.3778478,9.71410179 16.1884348,7.89681157 C17.9990218,6.07952136 20.2836251,5.17184187 23.0422447,5.17184187 Z M27.1160654,10.395827 C26.0592421,9.25253711 24.6993592,8.68089215 23.0422447,8.68089215 C21.3851302,8.68089215 20.0252473,9.25253711 18.968424,10.395827 C17.9116007,11.5391169 17.3812464,13.0126477 17.3812464,14.8106256 C17.3812464,16.6086035 17.909658,18.0280597 18.968424,19.1636247 C20.0252473,20.2991896 21.3831875,20.8669721 23.0422447,20.8669721 C24.7013019,20.8669721 26.0592421,20.2991896 27.1160654,19.1636247 C28.1728887,18.0280597 28.703243,16.5777037 28.703243,14.8106256 C28.703243,13.0435474 28.1748314,11.5391169 27.1160654,10.395827 Z M42.8907072,11.0003029 C44.5827901,11.0003029 45.9620999,11.6279537 47.0286367,12.8793926 C48.0951734,14.1327628 48.6274704,15.72603 48.6274704,17.6611254 C48.6274704,19.5962208 48.0951734,21.1856256 47.0286367,22.4293396 C45.9620999,23.6749849 44.5827901,24.2968419 42.8907072,24.2968419 C41.3501541,24.2968419 40.1573426,23.825621 39.3122725,22.8831793 L39.3122725,29.8472054 L35.5803652,29.8472054 L35.5803652,11.2532945 L38.9315052,11.2532945 L39.10829,12.692063 C39.9378186,11.5661542 41.1986243,11.0022342 42.8907072,11.0022342 L42.8907072,11.0003029 Z M41.977643,14.2293244 C40.8605963,14.2293244 39.972787,14.7681384 39.3122725,15.8438352 L39.3122725,19.4513784 C39.9553028,20.5290064 40.8431121,21.0658891 41.977643,21.0658891 C42.8401973,21.0658891 43.5395656,20.7588231 44.0718627,20.144691 C44.6041597,19.5305589 44.8722509,18.70206 44.8722509,17.6591942 C44.8722509,16.6163284 44.6061024,15.783967 44.0718627,15.1601787 C43.5395656,14.5383217 42.8401973,14.2273932 41.977643,14.2273932 L41.977643,14.2293244 Z M56.9771516,11.0003029 C58.9062426,11.0003029 60.3865723,11.614435 61.4200833,12.8426992 C62.4516517,14.0709633 62.9684072,15.6178809 62.9684072,17.4853832 L62.9684072,18.6711603 L54.2612711,18.6711603 C54.3467495,20.3860951 55.3278079,21.2454938 57.206389,21.2454938 C58.4419397,21.2454938 59.3802589,20.8090351 60.0232893,19.9341866 L62.5876399,22.0025371 C61.2510693,23.5340048 59.4307689,24.2987731 57.1306241,24.2987731 C55.1335389,24.2987731 53.5308197,23.6807786 52.3205239,22.4447895 C51.1102281,21.2088004 50.5060516,19.6232581 50.5060516,17.6881627 C50.5060516,15.7530673 51.1102281,14.1559376 52.3205239,12.8948425 C53.5308197,11.6337473 55.0830289,11.0022342 56.9771516,11.0022342 L56.9771516,11.0003029 Z M58.6012403,14.507422 C58.1777339,14.0362012 57.5949269,13.8005907 56.848934,13.8005907 C56.1029411,13.8005907 55.4948792,14.0362012 55.0208629,14.507422 C54.5468465,14.9786428 54.2923541,15.58505 54.2593284,16.3247122 L59.2850671,16.3247122 C59.2500987,15.58505 59.022804,14.9786428 58.5992976,14.507422 L58.6012403,14.507422 Z M73.1461595,11.0003029 C74.6847698,11.0003029 75.873696,11.5101484 76.7129381,12.525977 C77.5502374,13.5437367 77.9698584,14.9264995 77.9698584,16.6761966 L77.9698584,24.0438503 L74.2379512,24.0438503 L74.2379512,16.8770448 C74.2379512,16.1547637 74.0475676,15.5734626 73.6668003,15.1350727 C73.2860331,14.6986141 72.773163,14.4784535 72.1301326,14.4784535 C71.13159,14.4784535 70.3195457,14.9825053 69.6939995,15.9925401 L69.6939995,24.0419191 L65.9620923,24.0419191 L65.9620923,11.2532945 L69.3132323,11.2532945 L69.4919598,12.666957 C70.2534942,11.556498 71.4715608,11.0022342 73.1461595,11.0022342 L73.1461595,11.0003029 Z M29.8707996,39.0765677 L29.8707996,57.6221978 L26.0126175,57.6221978 L26.0126175,49.8760224 L18.4477831,49.8760224 L18.4477831,57.6221978 L14.564346,57.6221978 L14.564346,39.0765677 L18.4477831,39.0765677 L18.4477831,46.3689034 L26.0126175,46.3689034 L26.0126175,39.0765677 L29.8707996,39.0765677 Z M34.2748776,39.2407225 C34.6886705,38.8293699 35.2093114,38.622728 35.8368003,38.622728 C36.4642891,38.622728 36.9829873,38.8293699 37.3987229,39.2407225 C37.8125159,39.6540064 38.0203837,40.1696456 38.0203837,40.7934338 C38.0203837,41.4172221 37.8125159,41.9328613 37.3987229,42.3461451 C36.9829873,42.759429 36.4642891,42.9641397 35.8368003,42.9641397 C35.2093114,42.9641397 34.6906132,42.7574977 34.2748776,42.3461451 C33.859142,41.9347925 33.6532168,41.4172221 33.6532168,40.7934338 C33.6532168,40.1696456 33.8610847,39.6540064 34.2748776,39.2407225 Z M37.6881837,44.8297107 L37.6881837,57.6221978 L33.9562765,57.6221978 L33.9562765,44.8297107 L37.6881837,44.8297107 Z M48.8819628,44.5786504 L48.8819628,48.2634429 L48.5769605,48.2634429 C47.3239255,48.2634429 46.249618,48.8273629 45.354038,49.9532717 L45.354038,57.6241291 L41.6221307,57.6241291 L41.6221307,44.8316419 L44.9480158,44.8316419 L45.1772532,46.5214708 C45.5152813,45.9498258 46.0067818,45.4824674 46.6498121,45.1213269 C47.2928425,44.7601863 48.0368927,44.5786504 48.8839055,44.5786504 L48.8819628,44.5786504 Z M51.7882269,39.2407225 C52.2020198,38.8293699 52.7226607,38.622728 53.3501496,38.622728 C53.9776384,38.622728 54.4963366,38.8293699 54.9120722,39.2407225 C55.3258652,39.6540064 55.533733,40.1696456 55.533733,40.7934338 C55.533733,41.4172221 55.3258652,41.9328613 54.9120722,42.3461451 C54.4982793,42.759429 53.9776384,42.9641397 53.3501496,42.9641397 C52.7226607,42.9641397 52.2039625,42.7574977 51.7882269,42.3461451 C51.3724913,41.9347925 51.1665661,41.4172221 51.1665661,40.7934338 C51.1665661,40.1696456 51.3744339,39.6540064 51.7882269,39.2407225 Z M55.201533,44.8297107 L55.201533,57.6221978 L51.4696257,57.6221978 L51.4696257,44.8297107 L55.201533,44.8297107 Z M66.3195472,44.5786504 C67.8581576,44.5786504 69.0470838,45.0884959 69.8863258,46.1043244 C70.7236252,47.1220842 71.1432462,48.504847 71.1432462,50.2545441 L71.1432462,57.6221978 L67.4113389,57.6221978 L67.4113389,50.4553923 C67.4113389,49.7331112 67.2209553,49.1518101 66.8401881,48.7134202 C66.4594209,48.2769615 65.9465508,48.056801 65.3035204,48.056801 C64.3049778,48.056801 63.4929334,48.5608528 62.8673873,49.5708876 L62.8673873,57.6202666 L59.13548,57.6202666 L59.13548,44.8277795 L62.4866201,44.8277795 L62.6653475,46.241442 C63.426882,45.130983 64.6449485,44.5767192 66.3195472,44.5767192 L66.3195472,44.5786504 Z M79.4929273,44.5786504 C81.2180359,44.5786504 82.4788416,45.1425704 83.2753445,46.2684792 L83.4521293,44.8297107 L86.8032693,44.8297107 L86.8032693,57.09304 C86.8032693,59.1285595 86.1680097,60.7353453 84.8994332,61.9133975 C83.6308568,63.0914496 81.9387739,63.6804756 79.8231846,63.6804756 C77.2510632,63.6804756 75.1451873,62.76314 73.5036144,60.9303999 L75.9397475,58.5086337 C77.0898199,59.8044911 78.3681099,60.4514541 79.7726746,60.4514541 C80.7887015,60.4514541 81.587147,60.1482505 82.1718966,59.5437746 C82.7566463,58.9392987 83.0558205,58.1474932 83.0733048,57.1722205 L83.0733048,56.1872917 C82.2612604,57.1297334 81.0684488,57.6009543 79.49487,57.6009543 C77.8027871,57.6009543 76.4234773,56.9868222 75.3569405,55.758558 C74.2904038,54.5302939 73.7581068,52.9756513 73.7581068,51.0907679 C73.7581068,49.2058846 74.2904038,47.651242 75.3569405,46.4229779 C76.4234773,45.1947137 77.8027871,44.5805816 79.49487,44.5805816 L79.4929273,44.5786504 Z M80.4059915,47.8076719 C79.5434372,47.8076719 78.8479543,48.107013 78.3253707,48.703764 C77.8008444,49.300515 77.5385813,50.096183 77.5385813,51.0888367 C77.5385813,52.0814905 77.8008444,52.8771584 78.3253707,53.4739094 C78.8498969,54.0706604 79.5434372,54.3700015 80.4059915,54.3700015 C81.5230382,54.3700015 82.4108475,53.8311875 83.0713621,52.7554908 L83.0713621,49.4241139 C82.4108475,48.3484171 81.5230382,47.8096032 80.4059915,47.8096032 L80.4059915,47.8076719 Z M92.2777694,41.027113 C93.2394009,41.027113 94.0436745,41.3554226 94.6905903,42.0120418 C95.337506,42.668661 95.6599925,43.4855726 95.6599925,44.4627764 C95.6599925,45.4399803 95.3394487,46.2646168 94.6964183,46.9135111 C94.053388,47.5624053 93.2471717,47.8868525 92.2797121,47.8868525 C91.3122525,47.8868525 90.4963228,47.5643366 89.8571778,46.9173735 C89.2180329,46.2723417 88.8994317,45.4534989 88.8994317,44.4608452 C88.8994317,43.4681915 89.2180329,42.6570736 89.8571778,42.0043169 C90.4963228,41.3515601 91.3044818,41.0251818 92.2797121,41.0251818 L92.2777694,41.027113 Z M92.2777694,41.8189185 C91.5531461,41.8189185 90.9528549,42.07191 90.4788386,42.5798243 C90.0048223,43.0858073 89.7678141,43.7153893 89.7678141,44.4647077 C89.7678141,45.2140261 90.0048223,45.8494017 90.4788386,46.349591 C90.9528549,46.8497804 91.5512034,47.0989094 92.2777694,47.0989094 C93.0043354,47.0989094 93.5929705,46.8478491 94.0708722,46.3437973 C94.5487739,45.8397455 94.7877247,45.2140261 94.7877247,44.4647077 C94.7877247,43.7153893 94.5487739,43.0877386 94.0708722,42.5798243 C93.5929705,42.0738413 92.9965647,41.8189185 92.2777694,41.8189185 Z M90.8887462,42.6010679 L92.3749039,42.6010679 C92.7401296,42.6010679 93.05096,42.7092169 93.3054524,42.9274462 C93.5599447,43.1456756 93.6881623,43.4353605 93.6881623,43.8003635 C93.6881623,44.2793093 93.4725237,44.6346562 93.0412465,44.8702666 L93.859119,46.2298546 L92.856691,46.2298546 L92.1456665,45.0305589 L91.7571285,45.0305589 L91.7571285,46.2298546 L90.8848608,46.2298546 L90.8848608,42.6010679 L90.8887462,42.6010679 Z M92.2894256,43.3832172 L91.7610139,43.3832172 L91.7610139,44.2619282 L92.2894256,44.2619282 C92.6410524,44.2619282 92.8178372,44.111292 92.8178372,43.8119509 C92.8178372,43.5126098 92.6410524,43.3832172 92.2894256,43.3832172 Z" id="Combined-Shape" fill="#AA0061"></path>
            </g>
        </g>
    </g>
</svg>